<svg width="1600" height="672" viewBox="0 0 1600 672" fill="none" xmlns="http://www.w3.org/2000/svg">
<g clip-path="url(#clip0_521_6100)">
<path d="M598.778 282.152H506.714L420.358 389.127H391.097V157.947H310.452V562.87H391.097V454.46H420.358L506.714 562.87H602.347L485.303 417.127L598.778 282.152Z" fill="#4EBD09"/>
<path d="M710.827 173.742H630.181V247.691H710.827V173.742Z" fill="#4EBD09"/>
<path d="M710.827 282.155H630.181V563.591H710.827V282.155Z" fill="#4EBD09"/>
<path d="M829.295 174.46H748.649V563.588H829.295V174.46Z" fill="#4EBD09"/>
<path d="M244.079 402.768C233.374 397.025 221.241 393.435 206.254 391.999C191.98 390.563 163.433 389.845 145.591 389.845H123.467C109.193 389.845 98.488 388.409 91.3512 387.691C87.0692 386.973 84.2144 385.537 82.0734 384.819C79.9324 383.384 78.505 382.666 77.7913 381.23C75.6503 378.358 74.9366 373.332 74.9366 366.871V365.435C74.9366 358.973 76.3639 353.948 77.7913 351.076C78.505 350.358 79.9324 348.922 82.0734 347.486C84.2144 346.05 87.7828 345.332 91.3512 344.614C98.488 343.178 109.193 342.46 123.467 342.46H253.357V277.845H119.898C102.056 277.845 86.3555 278.563 72.0819 279.999C57.8083 281.435 44.962 285.025 34.2568 290.768C23.5516 296.512 14.9875 305.845 9.27803 318.05C3.56859 330.255 0.713867 346.768 0.713867 366.153C0.713867 386.255 3.56859 402.05 9.27803 414.255C14.9875 426.46 23.5516 435.794 34.2568 441.537C44.962 447.281 57.0946 450.871 72.0819 452.307C86.3555 453.743 102.77 454.46 119.898 454.46H130.604H142.023C156.296 454.46 179.848 455.896 186.271 456.614C190.553 457.332 193.407 458.768 195.549 459.486C197.69 460.922 199.117 461.64 199.831 463.076C201.972 465.948 202.685 470.973 202.685 477.435V478.871C202.685 485.332 201.258 490.358 199.831 493.23C199.117 493.948 197.69 495.384 195.549 496.819C193.407 498.255 189.839 498.973 186.271 499.691C179.134 501.127 168.429 501.845 154.155 501.845L15.7011 502.563V567.178H158.437C176.279 567.178 191.98 566.46 206.254 565.025C220.527 563.589 233.374 559.999 244.079 554.255C254.784 548.512 263.348 539.178 269.058 526.973C274.767 514.768 277.622 498.255 277.622 478.871C277.622 458.768 274.767 442.973 269.058 430.768C263.348 417.845 254.784 408.512 244.079 402.768Z" fill="#4EBD09"/>
<path d="M980.595 157.949L906.373 46.6665L832.15 157.949H866.407V562.872H947.053V157.949H980.595Z" fill="#4EBD09"/>
<path d="M1201.12 429.333C1201.12 441.538 1200.41 450.154 1198.98 458.769C1197.55 468.103 1194.7 475.282 1191.13 480.308C1186.85 486.051 1181.14 489.641 1173.29 493.231C1165.44 496.103 1154.02 497.538 1139.75 497.538C1126.9 497.538 1116.19 496.82 1108.34 495.385C1100.49 493.949 1095.5 491.077 1092.64 487.487C1089.79 483.897 1086.93 477.436 1085.51 468.821C1084.79 462.359 1084.08 453.744 1084.08 444.41V111.282H1117.62L1043.4 0L969.176 111.282H1002.72V444.41V453.026C1002.72 470.974 1004.15 486.769 1006.29 500.41C1009.14 514.769 1014.14 526.974 1021.27 537.026C1029.13 547.077 1039.83 554.974 1053.39 560C1067.66 565.026 1085.51 567.179 1107.63 567.179C1124.76 567.179 1139.75 565.744 1152.59 562.872C1165.44 560 1176.14 554.974 1185.42 548.513C1192.56 543.487 1198.27 537.026 1203.98 529.846L1206.12 562.872H1281.77V292.205H1201.12V429.333Z" fill="#FA2702"/>
<path d="M1593.65 351.077C1590.79 338.872 1586.51 328.103 1579.37 319.488C1572.24 310.872 1562.24 304.411 1548.68 300.103C1535.12 295.795 1518 293.641 1496.59 293.641H1318.88V672H1400.24V567.18H1495.87C1518 567.18 1535.84 565.026 1549.4 560C1562.96 554.975 1572.95 547.795 1580.09 539.18C1587.22 529.846 1592.22 519.795 1594.36 506.872C1596.5 494.667 1597.93 408.513 1597.93 394.154C1597.93 377.641 1596.5 363.282 1593.65 351.077ZM1515.14 481.026C1514.43 486.77 1511.57 491.077 1508.72 493.949C1505.15 496.821 1500.15 498.975 1493.02 500.411C1485.88 501.846 1475.89 501.847 1463.04 501.847H1400.24V358.257H1463.76C1475.89 358.257 1485.88 358.975 1493.02 360.411C1500.15 361.846 1505.15 364 1508.72 366.872C1512.29 369.744 1514.43 374.052 1515.14 379.795C1515.85 385.539 1516.57 392.718 1516.57 401.334C1516.57 409.231 1516.57 475.282 1515.14 481.026Z" fill="#FA2702"/>
</g>
<defs>
<clipPath id="clip0_521_6100">
<rect width="1600" height="671.433" fill="white"/>
</clipPath>
</defs>
</svg>
